HIERARCHY
ROOT Root
{
  OFFSET 0.0 0.0 0.0
  CHANNELS 6 Xposition Yposition Zposition Zrotation Yrotation Xrotation
  JOINT Hips
  {
    OFFSET 0.0 100.0 0.0
    CHANNELS 6 Xposition Yposition Zposition Zrotation Yrotation Xrotation
    JOINT Spine1
    {
      OFFSET 5.003913 -0.037094 -0.013727
      CHANNELS 3 Zrotation Yrotation Xrotation
      JOINT Spine2
      {
        OFFSET 7.125363 -1e-06 0.0
        CHANNELS 3 Zrotation Yrotation Xrotation
        JOINT Chest
        {
          OFFSET 7.594027 1e-06 0.0
          CHANNELS 3 Zrotation Yrotation Xrotation
          JOINT Neck1
          {
            OFFSET 26.313086 -0.460272 -0.181672
            CHANNELS 3 Zrotation Yrotation Xrotation
            JOINT Neck2
            {
              OFFSET 8.045911 0.0 0.0
              CHANNELS 3 Zrotation Yrotation Xrotation
              JOINT Head
              {
                OFFSET 6.432774 0.0 0.0
                CHANNELS 3 Zrotation Yrotation Xrotation
                JOINT HeadEnd
                {
                  OFFSET 16.169773 0.06451 0.00362
                  CHANNELS 3 Zrotation Yrotation Xrotation
                }
                JOINT Jaw
                {
                  OFFSET 0.108741 3.12938 0.002639
                  CHANNELS 3 Zrotation Yrotation Xrotation
                }
                JOINT LeftEye
                {
                  OFFSET 4.45173 8.166359 3.206392
                  CHANNELS 3 Zrotation Yrotation Xrotation
                }
                JOINT RightEye
                {
                  OFFSET 4.436895 8.135758 -3.222429
                  CHANNELS 3 Zrotation Yrotation Xrotation
                }
              }
            }
          }
          JOINT LeftShoulder
          {
            OFFSET 23.218927 5.195579 1.621656
            CHANNELS 3 Zrotation Yrotation Xrotation
            JOINT LeftArm
            {
              OFFSET 15.902118 2e-06 -2e-06
              CHANNELS 3 Zrotation Yrotation Xrotation
              JOINT LeftForeArm
              {
                OFFSET 28.739307 0.0 -1e-06
                CHANNELS 3 Zrotation Yrotation Xrotation
                JOINT LeftHand
                {
                  OFFSET 27.093981 -4e-06 0.0
                  CHANNELS 3 Zrotation Yrotation Xrotation
                  JOINT LeftHandThumb1
                  {
                    OFFSET 2.276781 3.380274 0.83384
                    CHANNELS 3 Zrotation Yrotation Xrotation
                    JOINT LeftHandThumb2
                    {
                      OFFSET 4.705309 -1e-06 -1e-06
                      CHANNELS 3 Zrotation Yrotation Xrotation
                      JOINT LeftHandThumb3
                      {
                        OFFSET 2.798515 0.0 3e-06
                        CHANNELS 3 Zrotation Yrotation Xrotation
                        JOINT LeftHandThumbEnd
                        {
                          OFFSET 3.180793 4e-06 -4e-06
                          CHANNELS 3 Zrotation Yrotation Xrotation
                        }
                      }
                    }
                  }
                  JOINT LeftHandIndex1
                  {
                    OFFSET 3.247786 2.352677 0.137192
                    CHANNELS 3 Zrotation Yrotation Xrotation
                    JOINT LeftHandIndex2
                    {
                      OFFSET 6.367095 1e-06 0.0
                      CHANNELS 3 Zrotation Yrotation Xrotation
                      JOINT LeftHandIndex3
                      {
                        OFFSET 3.662364 0.0 0.0
                        CHANNELS 3 Zrotation Yrotation Xrotation
                        JOINT LeftHandIndex4
                        {
                          OFFSET 2.329242 4e-06 -4e-06
                          CHANNELS 3 Zrotation Yrotation Xrotation
                          JOINT LeftHandIndexEnd
                          {
                            OFFSET 2.767823 1e-06 0.0
                            CHANNELS 3 Zrotation Yrotation Xrotation
                          }
                        }
                      }
                    }
                  }
                  JOINT LeftHandMiddle1
                  {
                    OFFSET 3.163612 0.945023 -0.406112
                    CHANNELS 3 Zrotation Yrotation Xrotation
                    JOINT LeftHandMiddle2
                    {
                      OFFSET 6.276789 3e-06 0.0
                      CHANNELS 3 Zrotation Yrotation Xrotation
                      JOINT LeftHandMiddle3
                      {
                        OFFSET 4.35652 -1e-06 4e-06
                        CHANNELS 3 Zrotation Yrotation Xrotation
                        JOINT LeftHandMiddle4
                        {
                          OFFSET 2.996877 0.0 8e-06
                          CHANNELS 3 Zrotation Yrotation Xrotation
                          JOINT LeftHandMiddleEnd
                          {
                            OFFSET 2.323256 3e-06 -4e-06
                            CHANNELS 3 Zrotation Yrotation Xrotation
                          }
                        }
                      }
                    }
                  }
                  JOINT LeftHandRing1
                  {
                    OFFSET 2.882606 -0.309162 0.107445
                    CHANNELS 3 Zrotation Yrotation Xrotation
                    JOINT LeftHandRing2
                    {
                      OFFSET 6.033198 0.0 4e-06
                      CHANNELS 3 Zrotation Yrotation Xrotation
                      JOINT LeftHandRing3
                      {
                        OFFSET 4.350578 3e-06 0.0
                        CHANNELS 3 Zrotation Yrotation Xrotation
                        JOINT LeftHandRing4
                        {
                          OFFSET 2.651321 2e-06 -7e-06
                          CHANNELS 3 Zrotation Yrotation Xrotation
                          JOINT LeftHandRingEnd
                          {
                            OFFSET 1.937663 1e-06 -4e-06
                            CHANNELS 3 Zrotation Yrotation Xrotation
                          }
                        }
                      }
                    }
                  }
                  JOINT LeftHandPinky1
                  {
                    OFFSET 2.865315 -1.525436 0.575687
                    CHANNELS 3 Zrotation Yrotation Xrotation
                    JOINT LeftHandPinky2
                    {
                      OFFSET 5.54936 1e-06 -8e-06
                      CHANNELS 3 Zrotation Yrotation Xrotation
                      JOINT LeftHandPinky3
                      {
                        OFFSET 3.070974 0.0 -4e-06
                        CHANNELS 3 Zrotation Yrotation Xrotation
                        JOINT LeftHandPinky4
                        {
                          OFFSET 1.549672 1e-06 0.0
                          CHANNELS 3 Zrotation Yrotation Xrotation
                          JOINT LeftHandPinkyEnd
                          {
                            OFFSET 1.952123 0.0 0.0
                            CHANNELS 3 Zrotation Yrotation Xrotation
                          }
                        }
                      }
                    }
                  }
                }
              }
            }
          }
          JOINT RightShoulder
          {
            OFFSET 23.161716 5.296122 -1.380114
            CHANNELS 3 Zrotation Yrotation Xrotation
            JOINT RightArm
            {
              OFFSET -16.027195 -2e-06 1.1e-05
              CHANNELS 3 Zrotation Yrotation Xrotation
              JOINT RightForeArm
              {
                OFFSET -28.736639 4e-06 2e-06
                CHANNELS 3 Zrotation Yrotation Xrotation
                JOINT RightHand
                {
                  OFFSET -27.133619 6e-06 0.0
                  CHANNELS 3 Zrotation Yrotation Xrotation
                  JOINT RightHandThumb1
                  {
                    OFFSET -2.274328 -3.351035 -0.83067
                    CHANNELS 3 Zrotation Yrotation Xrotation
                    JOINT RightHandThumb2
                    {
                      OFFSET -4.703594 -3e-06 2e-06
                      CHANNELS 3 Zrotation Yrotation Xrotation
                      JOINT RightHandThumb3
                      {
                        OFFSET -2.794935 -4e-06 -3e-06
                        CHANNELS 3 Zrotation Yrotation Xrotation
                        JOINT RightHandThumbEnd
                        {
                          OFFSET -3.183852 4e-06 1e-06
                          CHANNELS 3 Zrotation Yrotation Xrotation
                        }
                      }
                    }
                  }
                  JOINT RightHandIndex1
                  {
                    OFFSET -3.253496 -2.33755 -0.127667
                    CHANNELS 3 Zrotation Yrotation Xrotation
                    JOINT RightHandIndex2
                    {
                      OFFSET -6.344434 0.0 0.0
                      CHANNELS 3 Zrotation Yrotation Xrotation
                      JOINT RightHandIndex3
                      {
                        OFFSET -3.654871 0.0 -8e-06
                        CHANNELS 3 Zrotation Yrotation Xrotation
                        JOINT RightHandIndex4
                        {
                          OFFSET -2.327586 -1e-06 0.0
                          CHANNELS 3 Zrotation Yrotation Xrotation
                          JOINT RightHandIndexEnd
                          {
                            OFFSET -2.770001 3e-06 8e-06
                            CHANNELS 3 Zrotation Yrotation Xrotation
                          }
                        }
                      }
                    }
                  }
                  JOINT RightHandMiddle1
                  {
                    OFFSET -3.168223 -0.944764 0.411762
                    CHANNELS 3 Zrotation Yrotation Xrotation
                    JOINT RightHandMiddle2
                    {
                      OFFSET -6.266691 -1e-06 -4e-06
                      CHANNELS 3 Zrotation Yrotation Xrotation
                      JOINT RightHandMiddle3
                      {
                        OFFSET -4.348901 0.0 0.0
                        CHANNELS 3 Zrotation Yrotation Xrotation
                        JOINT RightHandMiddle4
                        {
                          OFFSET -3.00024 2e-06 -4e-06
                          CHANNELS 3 Zrotation Yrotation Xrotation
                          JOINT RightHandMiddleEnd
                          {
                            OFFSET -2.321477 -4e-06 -4e-06
                            CHANNELS 3 Zrotation Yrotation Xrotation
                          }
                        }
                      }
                    }
                  }
                  JOINT RightHandRing1
                  {
                    OFFSET -2.885654 0.293261 -0.119232
                    CHANNELS 3 Zrotation Yrotation Xrotation
                    JOINT RightHandRing2
                    {
                      OFFSET -6.032835 -1e-06 -4e-06
                      CHANNELS 3 Zrotation Yrotation Xrotation
                      JOINT RightHandRing3
                      {
                        OFFSET -4.33881 0.0 -4e-06
                        CHANNELS 3 Zrotation Yrotation Xrotation
                        JOINT RightHandRing4
                        {
                          OFFSET -2.654903 -4e-06 -4e-06
                          CHANNELS 3 Zrotation Yrotation Xrotation
                          JOINT RightHandRingEnd
                          {
                            OFFSET -1.935122 0.0 4e-06
                            CHANNELS 3 Zrotation Yrotation Xrotation
                          }
                        }
                      }
                    }
                  }
                  JOINT RightHandPinky1
                  {
                    OFFSET -2.866241 1.503904 -0.60527
                    CHANNELS 3 Zrotation Yrotation Xrotation
                    JOINT RightHandPinky2
                    {
                      OFFSET -5.553177 -2e-06 0.0
                      CHANNELS 3 Zrotation Yrotation Xrotation
                      JOINT RightHandPinky3
                      {
                        OFFSET -3.062664 -1e-06 -4e-06
                        CHANNELS 3 Zrotation Yrotation Xrotation
                        JOINT RightHandPinky4
                        {
                          OFFSET -1.546529 2e-06 4e-06
                          CHANNELS 3 Zrotation Yrotation Xrotation
                          JOINT RightHandPinkyEnd
                          {
                            OFFSET -1.952341 0.0 -4e-06
                            CHANNELS 3 Zrotation Yrotation Xrotation
                          }
                        }
                      }
                    }
                  }
                }
              }
            }
          }
        }
      }
    }
    JOINT LeftLeg
    {
      OFFSET -8.443107 2.567604 10.043214
      CHANNELS 3 Zrotation Yrotation Xrotation
      JOINT LeftShin
      {
        OFFSET 43.229198 1e-06 -1e-06
        CHANNELS 3 Zrotation Yrotation Xrotation
        JOINT LeftFoot
        {
          OFFSET 42.298611 1e-06 1e-06
          CHANNELS 3 Zrotation Yrotation Xrotation
          JOINT LeftToeBase
          {
            OFFSET 14.165858 1e-06 0.0
            CHANNELS 3 Zrotation Yrotation Xrotation
            JOINT LeftToeEnd
            {
              OFFSET 6.7141 -0.234461 0.0
              CHANNELS 3 Zrotation Yrotation Xrotation
            }
          }
        }
      }
    }
    JOINT RightLeg
    {
      OFFSET -8.303923 2.592729 -10.047278
      CHANNELS 3 Zrotation Yrotation Xrotation
      JOINT RightShin
      {
        OFFSET -43.369682 0.0 1e-06
        CHANNELS 3 Zrotation Yrotation Xrotation
        JOINT RightFoot
        {
          OFFSET -42.260784 4e-06 2e-06
          CHANNELS 3 Zrotation Yrotation Xrotation
          JOINT RightToeBase
          {
            OFFSET -14.222245 -2e-06 -1e-06
            CHANNELS 3 Zrotation Yrotation Xrotation
            JOINT RightToeEnd
            {
              OFFSET -6.660062 0.232574 -2e-06
              CHANNELS 3 Zrotation Yrotation Xrotation
            }
          }
        }
      }
    }
  }
}
MOTION
Frames: 4
Frame Time: 0.03333333333333333
0.0 0.0 0.0 0.0 -0.0 0.0 0.99461 97.65062 -5.662967 97.210213 8.026862 90.22435 3.02136 -3.859958 0.058857 -9.377179 -1.337785 0.727013 17.928213 -2.789065 -2.199835 21.259367 -1.51469 3.185065 -2.631982 -0.327442 1.193521 -35.295525 0.103014 0.528185 -0.002927 0.000179 -3.1e-05 -0.012956 0.00205 -0.005658 0.003331 0.026126 -0.029507 0.035377 -0.025328 0.008609 -106.933479 -72.420052 122.639519 20.408699 -71.883026 -6.255948 30.00304 0.016749 -0.09886 -1.630563 19.002684 10.732865 17.670088 -26.397585 52.599953 -19.467787 -14.405168 29.466993 0.000319 -8.783724 0.002125 16.005047 -17.993362 6.553477 -0.617114 -1.785091 -3.893938 -4.809495 -11.055612 -2.943763 0.002274 -20.978315 0.006564 -5.015551 -25.01755 -4.034544 0.000137 -0.00726 0.000454 -10.662753 -5.685111 -3.57537 10.591739 -17.947161 -3.112415 0.000645 -13.845455 0.00578 -0.506355 -31.231754 -4.024776 -12.164694 -60.22443 8.877868 -14.015759 -7.151742 -2.886234 13.798109 -8.401107 -3.218512 0.33761 -34.237377 0.78769 -0.968265 -17.746447 2.635795 0.000841 -0.001951 -0.009385 -17.386032 -20.114653 -4.219865 21.803808 -1.636493 3.885647 -0.005528 -6.343617 -0.002749 -1.705787 -22.595152 -6.192264 -0.0008 0.003968 0.000461 53.412006 -75.780273 143.703583 40.356705 -67.509796 -18.860249 17.658333 -0.02785 0.064666 -8.70812 13.285913 0.89805 22.21479 -20.438858 50.060482 -16.70797 -16.73271 28.520243 0.000151 -12.689314 -0.002242 16.325254 -18.248934 2.284575 -0.108821 -1.520917 -4.285177 -5.035842 -5.631176 -2.958592 0.001428 -11.036048 -0.000744 -6.106935 -15.93399 -3.84372 0.001674 0.006258 -0.000853 -10.285601 -5.705911 -4.356488 11.022946 -11.314194 -2.364592 -1.381852 -14.257413 -6.328967 -0.629211 -26.951168 -3.826734 -3.892968 -49.459446 -4.493055 -13.711004 -7.385989 -3.735383 18.136475 -14.071873 -3.238654 9.9e-05 -18.804712 -6e-05 -0.430254 -8.47485 2.561318 -0.001561 0.005834 -0.002652 -15.918755 -20.133507 -5.495607 30.394169 -7.197278 1.743523 0.001638 -8.165968 0.000804 -1.860749 -22.838474 -6.164295 0.005154 -0.0 0.002608 178.038254 12.788558 -5.889359 18.312462 0.017151 -0.662853 -78.872108 -9.886627 -0.325793 -6.818706 1.537549 2.072487 -1.001672 0.002013 0.000166 -5.809032 -10.239089 0.176387 68.492203 -0.475809 0.325807 -48.341644 -6.751043 -9.17021 -10.248078 0.749862 1.720472 -1.000081 0.001673 -0.000884 
0.0 0.0 0.0 0.0 -0.0 0.0 1.149894 98.111252 -1.271364 96.25251 8.366141 91.060349 3.300621 -3.422637 -0.164472 -9.259426 -1.230719 0.405887 17.866776 -2.203869 -2.568374 21.692539 -1.809407 3.079723 -2.574425 -0.325968 1.383464 -35.489574 -0.180515 0.707384 0.0 -0.0 0.0 0.013185 0.00909 0.037967 0.084859 0.009639 0.042256 0.095553 0.006859 0.032189 -106.355614 -72.98085 121.813164 24.330206 -71.173119 -7.841438 32.609787 -0.385226 -0.160386 -1.716108 19.30654 10.912495 17.623917 -26.347643 52.501064 -19.440542 -14.365607 29.40667 0.000116 -8.761101 -0.002106 15.625137 -18.145683 6.601026 -0.622944 -1.790186 -3.884364 -4.787291 -11.037479 -2.938694 -0.000867 -20.955284 -0.007198 -5.009377 -25.008394 -4.036601 0.00078 -0.00729 0.002837 -10.635331 -5.671644 -3.567152 10.566751 -17.912218 -3.108365 0.003307 -13.805559 -0.004671 -0.507941 -31.123028 -4.025749 -11.916662 -59.622971 8.421445 -13.981688 -7.146452 -2.876042 13.764202 -8.395731 -3.212226 0.348542 -34.181774 0.768022 -0.960204 -17.705845 2.619159 0.001355 0.000683 -0.000635 -17.338526 -20.086748 -4.208208 21.744553 -1.636882 3.872738 -0.006548 -6.334789 -0.000162 -1.694002 -22.563681 -6.203538 0.001613 -0.005626 0.004436 54.417618 -75.237686 142.828903 36.605206 -67.80378 -16.584076 17.688673 0.244096 0.014959 -8.169841 13.517715 0.632528 22.182364 -20.41021 50.056248 -16.697245 -16.73884 28.516825 -8.1e-05 -12.68819 0.001955 16.398279 -18.189266 2.322009 -0.108251 -1.511639 -4.283424 -5.038126 -5.610248 -2.960392 -0.000363 -11.021197 -0.003652 -6.102625 -15.896593 -3.851314 -0.002614 -0.0 -0.001121 -10.278077 -5.685048 -4.35058 11.019969 -11.298531 -2.375155 -1.381125 -14.249886 -6.337419 -0.620753 -26.957127 -3.84282 -3.831666 -49.458778 -4.405362 -13.701922 -7.36292 -3.73635 18.117769 -14.048005 -3.237382 0.001091 -18.780733 0.0025 -0.432185 -8.440105 2.557882 -0.001919 9.9e-05 -0.000748 -15.918944 -20.098797 -5.499639 30.3934 -7.195764 1.739347 -0.001278 -8.164751 0.003374 -1.863117 -22.851524 -6.161935 0.000502 -0.00051 0.002739 -176.856476 11.948633 -4.649979 15.169386 0.003894 -0.537826 -80.265587 -10.320623 -0.267693 -6.860556 1.623657 2.069442 -1.00053 -0.006155 -0.001528 -10.760501 -8.265908 0.924583 69.053177 -0.237778 0.217927 -56.044827 -8.927539 -7.915584 -10.419016 0.739822 1.687764 -1.011546 -0.002864 -0.000928 
0.0 0.0 0.0 0.0 -0.0 0.0 1.276215 98.367203 3.194155 94.804222 8.514129 91.916367 3.554855 -2.763053 -0.375982 -9.191813 -1.11735 -0.122657 17.796633 -1.388793 -2.810459 21.957218 -1.855458 3.026516 -2.537855 -0.392894 1.582284 -35.698498 -0.234734 0.972119 0.003017 0.000389 -0.000276 0.043078 0.01443 0.025766 0.095283 -0.010715 0.030962 0.120953 0.034471 0.02112 -105.008041 -73.542969 120.093658 28.17297 -70.539513 -9.134403 35.104584 -0.414629 -0.237299 -2.070912 19.068827 11.600068 17.639704 -26.304356 52.412079 -19.486143 -14.406585 29.405331 -0.002582 -8.786991 0.004541 15.549845 -18.366207 6.588655 -0.606499 -1.807112 -3.889978 -4.804373 -11.043999 -2.9384 -0.004878 -20.987658 -0.002232 -5.023186 -25.042671 -4.035145 -0.001668 0.000218 0.005059 -10.636018 -5.693281 -3.560296 10.565991 -17.927042 -3.113084 -0.000887 -13.819504 -0.005705 -0.505133 -31.214548 -4.020819 -11.8615 -59.739197 8.268221 -13.983264 -7.163907 -2.871252 13.775819 -8.400307 -3.22117 0.354933 -34.239208 0.756699 -0.969631 -17.751894 2.616762 0.002382 0.001097 0.0 -17.354631 -20.128824 -4.1998 21.773035 -1.634959 3.871047 0.001072 -6.339186 -0.003141 -1.684946 -22.605112 -6.200066 -0.006451 -0.001513 -0.005818 54.771046 -74.689339 142.383316 32.463127 -67.733902 -13.747594 18.399477 0.388069 -0.011789 -7.656032 13.386588 0.124567 22.185703 -20.381058 49.956474 -16.681225 -16.744432 28.471663 -0.00032 -12.694617 -0.00127 16.33573 -18.114458 2.425244 -0.105045 -1.520913 -4.279581 -5.040287 -5.6086 -2.950385 0.001432 -11.026092 0.002109 -6.113451 -15.908981 -3.835294 7.4e-05 3.1e-05 -8e-06 -10.288286 -5.681365 -4.341187 11.028509 -11.302262 -2.368566 -1.384405 -14.2357 -6.315988 -0.628401 -26.91081 -3.819512 -3.815704 -49.481625 -4.265858 -13.716625 -7.361335 -3.721117 18.153639 -14.063683 -3.239511 0.00057 -18.794617 0.000894 -0.427497 -8.46577 2.55918 -0.001022 -1.4e-05 -0.00186 -15.931633 -20.098896 -5.478144 30.430262 -7.203457 1.736838 -0.00212 -8.167628 0.002043 -1.862861 -22.855522 -6.159863 -0.005335 -0.003325 -0.001672 -172.045334 10.386324 -3.332101 12.079713 0.027593 -0.399017 -81.741135 -10.323761 -0.226237 -7.031286 1.67584 2.073576 -0.993937 0.002128 -0.000679 -15.251716 -6.150436 0.6503 65.585106 -0.012077 0.077189 -62.210278 -10.411485 -7.272726 -11.199235 0.765215 1.663013 -1.000441 0.002535 0.000481 
0.0 0.0 0.0 0.0 -0.0 0.0 1.333786 98.218399 7.372223 93.612007 8.415207 92.88488 3.685428 -2.320735 -0.632255 -9.171629 -1.027813 -0.563033 17.776709 -0.720923 -3.015546 22.185638 -1.540808 2.986782 -2.573048 -0.426315 1.684645 -35.837677 -0.14857 1.227588 0.003043 -8.7e-05 -0.001141 0.066831 0.009659 -0.00976 0.061856 -0.026073 -0.023555 0.079619 0.041664 0.008111 -102.692009 -74.593475 117.209328 31.835762 -70.153175 -10.689581 37.122341 -0.409259 -0.244671 -2.476471 18.356478 12.508954 17.588728 -26.226648 52.287327 -19.460192 -14.367789 29.348745 -0.002331 -8.754927 0.00866 15.476005 -18.410276 6.528012 -0.606193 -1.787203 -3.869803 -4.790915 -11.039681 -2.941797 0.005863 -20.969801 -0.007921 -4.993598 -25.043505 -4.020429 0.000392 0.00554 -0.005841 -10.612181 -5.668709 -3.54623 10.569096 -17.919792 -3.126784 0.001383 -13.815109 -0.00563 -0.481905 -31.147869 -4.038353 -11.690659 -59.553272 8.182628 -13.946449 -7.130033 -2.865126 13.743011 -8.40136 -3.226722 0.352956 -34.202526 0.756251 -0.945038 -17.737612 2.604551 -0.002285 0.009499 -0.001458 -17.303219 -20.063339 -4.193481 21.720718 -1.644817 3.850806 0.003256 -6.336168 -0.001346 -1.683474 -22.574312 -6.20411 -0.002336 -0.004024 0.001923 55.341698 -74.375381 142.059906 29.132233 -67.643776 -10.978374 19.137859 0.480799 -0.023808 -7.55493 12.90887 0.169821 22.171719 -20.334852 49.803177 -16.685274 -16.70233 28.415712 0.001716 -12.673616 -0.003958 16.224426 -18.128252 2.512134 -0.107657 -1.507779 -4.269862 -5.033151 -5.620602 -2.947742 0.00281 -11.030312 0.001021 -6.091502 -15.912913 -3.831527 -0.002151 -0.003223 -0.001743 -10.273758 -5.661187 -4.332187 11.015662 -11.320086 -2.366649 -1.383078 -14.242992 -6.310704 -0.630342 -26.94772 -3.817266 -3.881851 -49.746872 -3.997839 -13.695337 -7.359864 -3.711457 18.128292 -14.068037 -3.235341 0.004437 -18.813253 -0.004369 -0.426151 -8.479457 2.551866 -9.6e-05 0.006278 -7e-06 -15.899376 -20.082541 -5.463131 30.371645 -7.201035 1.733821 0.000968 -8.161889 -0.002289 -1.849926 -22.860735 -6.162457 -0.001185 -9e-06 -3.9e-05 -168.864868 8.865855 -2.483847 11.217347 0.04793 -0.325277 -84.027115 -10.088327 -0.0574 -7.121641 1.701382 2.088617 -0.994877 -0.004187 -0.000108 -18.918875 -4.820435 -0.63041 58.189072 0.025949 -0.00901 -65.95311 -11.068199 -7.67978 -11.645658 0.80783 1.64356 -0.99262 0.001313 0.000574 
